<svg width="482" height="17" viewBox="0 0 482 17" fill="none" xmlns="http://www.w3.org/2000/svg">
<path d="M4.03125 13C7.5767 13 9.5767 10.7955 9.5767 7.15909C9.5767 3.54545 7.5767 1.36364 4.19034 1.36364H0.440341V13H4.03125ZM1.84943 11.75V2.61364H4.09943C6.8267 2.61364 8.21307 4.34091 8.21307 7.15909C8.21307 10 6.8267 11.75 3.94034 11.75H1.84943ZM11.7585 13H13.0994V4.27273H11.7585V13ZM12.4403 2.81818C12.9631 2.81818 13.3949 2.40909 13.3949 1.90909C13.3949 1.40909 12.9631 1 12.4403 1C11.9176 1 11.4858 1.40909 11.4858 1.90909C11.4858 2.40909 11.9176 2.81818 12.4403 2.81818ZM19.0781 16.4545C21.169 16.4545 22.8509 15.5 22.8509 13.25V4.27273H21.5554V5.65909H21.419C21.1236 5.20455 20.5781 4.15909 18.8736 4.15909C16.669 4.15909 15.1463 5.90909 15.1463 8.59091C15.1463 11.3182 16.7372 12.8636 18.8509 12.8636C20.5554 12.8636 21.1009 11.8636 21.3963 11.3864H21.5099V13.1591C21.5099 14.6136 20.4872 15.2727 19.0781 15.2727C17.4929 15.2727 16.9361 14.4375 16.5781 13.9545L15.5099 14.7045C16.0554 15.6193 17.1293 16.4545 19.0781 16.4545ZM19.0327 11.6591C17.3509 11.6591 16.4872 10.3864 16.4872 8.56818C16.4872 6.79545 17.3281 5.36364 19.0327 5.36364C20.669 5.36364 21.5327 6.68182 21.5327 8.56818C21.5327 10.5 20.6463 11.6591 19.0327 11.6591ZM25.3054 13H26.6463V4.27273H25.3054V13ZM25.9872 2.81818C26.5099 2.81818 26.9418 2.40909 26.9418 1.90909C26.9418 1.40909 26.5099 1 25.9872 1C25.4645 1 25.0327 1.40909 25.0327 1.90909C25.0327 2.40909 25.4645 2.81818 25.9872 2.81818ZM32.8977 4.27273H31.0341V2.18182H29.6932V4.27273H28.375V5.40909H29.6932V10.8636C29.6932 12.3864 30.9205 13.1136 32.0568 13.1136C32.5568 13.1136 32.875 13.0227 33.0568 12.9545L32.7841 11.75C32.6705 11.7727 32.4886 11.8182 32.1932 11.8182C31.6023 11.8182 31.0341 11.6364 31.0341 10.5V5.40909H32.8977V4.27273ZM38.4801 13.1818C40.2528 13.1818 41.5483 12.2955 41.9574 10.9773L40.6619 10.6136C40.321 11.5227 39.5312 11.9773 38.4801 11.9773C36.9062 11.9773 35.821 10.9602 35.7585 9.09091H42.0938V8.52273C42.0938 5.27273 40.1619 4.15909 38.3438 4.15909C35.9801 4.15909 34.4119 6.02273 34.4119 8.70455C34.4119 11.3864 35.9574 13.1818 38.4801 13.1818ZM35.7585 7.93182C35.8494 6.57386 36.8097 5.36364 38.3438 5.36364C39.7983 5.36364 40.7301 6.45455 40.7301 7.93182H35.7585ZM54.1335 9.43182C54.1335 11.0682 52.8835 11.8182 51.8835 11.8182C50.7699 11.8182 49.9744 11 49.9744 9.72727V4.27273H48.6335V9.81818C48.6335 12.0455 49.8153 13.1136 51.4517 13.1136C52.7699 13.1136 53.6335 12.4091 54.0426 11.5227H54.1335V13H55.4744V4.27273H54.1335V9.43182ZM57.9304 13H59.2713V7.54545C59.2713 6.26705 60.2031 5.36364 61.2486 5.36364C62.2656 5.36364 62.9759 6.02841 62.9759 7.02273V13H64.3395V7.31818C64.3395 6.19318 65.044 5.36364 66.2713 5.36364C67.2259 5.36364 68.044 5.86932 68.044 7.15909V13H69.3849V7.15909C69.3849 5.10795 68.2827 4.15909 66.7259 4.15909C65.4759 4.15909 64.5611 4.73295 64.1122 5.63636H64.0213C63.5895 4.70455 62.8281 4.15909 61.6804 4.15909C60.544 4.15909 59.7031 4.70455 59.3395 5.63636H59.2259V4.27273H57.9304V13ZM80.1321 4.27273H78.2685V2.18182H76.9276V4.27273H75.6094V5.40909H76.9276V10.8636C76.9276 12.3864 78.1548 13.1136 79.2912 13.1136C79.7912 13.1136 80.1094 13.0227 80.2912 12.9545L80.0185 11.75C79.9048 11.7727 79.723 11.8182 79.4276 11.8182C78.8366 11.8182 78.2685 11.6364 78.2685 10.5V5.40909H80.1321V4.27273ZM85.7145 13.1818C87.4872 13.1818 88.7827 12.2955 89.1918 10.9773L87.8963 10.6136C87.5554 11.5227 86.7656 11.9773 85.7145 11.9773C84.1406 11.9773 83.0554 10.9602 82.9929 9.09091H89.3281V8.52273C89.3281 5.27273 87.3963 4.15909 85.5781 4.15909C83.2145 4.15909 81.6463 6.02273 81.6463 8.70455C81.6463 11.3864 83.1918 13.1818 85.7145 13.1818ZM82.9929 7.93182C83.0838 6.57386 84.044 5.36364 85.5781 5.36364C87.0327 5.36364 87.9645 6.45455 87.9645 7.93182H82.9929ZM92.1335 4.27273H90.5881L93.3608 8.63636L90.5881 13H92.1335L94.2244 9.61364L96.3153 13H97.8608L95.0426 8.63636L97.8608 4.27273H96.3153L94.2244 7.84091L92.1335 4.27273ZM103.57 4.27273H101.706V2.18182H100.365V4.27273H99.0469V5.40909H100.365V10.8636C100.365 12.3864 101.592 13.1136 102.729 13.1136C103.229 13.1136 103.547 13.0227 103.729 12.9545L103.456 11.75C103.342 11.7727 103.161 11.8182 102.865 11.8182C102.274 11.8182 101.706 11.6364 101.706 10.5V5.40909H103.57V4.27273ZM109.038 13.1818C111.402 13.1818 112.993 11.3864 112.993 8.68182C112.993 5.95455 111.402 4.15909 109.038 4.15909C106.675 4.15909 105.084 5.95455 105.084 8.68182C105.084 11.3864 106.675 13.1818 109.038 13.1818ZM109.038 11.9773C107.243 11.9773 106.425 10.4318 106.425 8.68182C106.425 6.93182 107.243 5.36364 109.038 5.36364C110.834 5.36364 111.652 6.93182 111.652 8.68182C111.652 10.4318 110.834 11.9773 109.038 11.9773ZM126.835 16.2727V4.27273H125.54V5.65909H125.381C125.085 5.20455 124.562 4.15909 122.858 4.15909C120.653 4.15909 119.131 5.90909 119.131 8.65909C119.131 11.4318 120.653 13.1818 122.835 13.1818C124.517 13.1818 125.085 12.1364 125.381 11.6591H125.494V16.2727H126.835ZM125.517 8.63636C125.517 10.6136 124.631 11.9773 123.017 11.9773C121.335 11.9773 120.472 10.5 120.472 8.63636C120.472 6.79545 121.312 5.36364 123.017 5.36364C124.653 5.36364 125.517 6.68182 125.517 8.63636ZM134.79 9.43182C134.79 11.0682 133.54 11.8182 132.54 11.8182C131.426 11.8182 130.631 11 130.631 9.72727V4.27273H129.29V9.81818C129.29 12.0455 130.472 13.1136 132.108 13.1136C133.426 13.1136 134.29 12.4091 134.699 11.5227H134.79V13H136.131V4.27273H134.79V9.43182ZM142.246 13.1818C144.018 13.1818 145.314 12.2955 145.723 10.9773L144.428 10.6136C144.087 11.5227 143.297 11.9773 142.246 11.9773C140.672 11.9773 139.587 10.9602 139.524 9.09091H145.859V8.52273C145.859 5.27273 143.928 4.15909 142.109 4.15909C139.746 4.15909 138.178 6.02273 138.178 8.70455C138.178 11.3864 139.723 13.1818 142.246 13.1818ZM139.524 7.93182C139.615 6.57386 140.575 5.36364 142.109 5.36364C143.564 5.36364 144.496 6.45455 144.496 7.93182H139.524ZM159.536 4.27273H158.081L155.672 11.2273H155.581L153.172 4.27273H151.717L154.945 13H156.308L159.536 4.27273ZM164.538 13.1818C166.902 13.1818 168.493 11.3864 168.493 8.68182C168.493 5.95455 166.902 4.15909 164.538 4.15909C162.175 4.15909 160.584 5.95455 160.584 8.68182C160.584 11.3864 162.175 13.1818 164.538 13.1818ZM164.538 11.9773C162.743 11.9773 161.925 10.4318 161.925 8.68182C161.925 6.93182 162.743 5.36364 164.538 5.36364C166.334 5.36364 167.152 6.93182 167.152 8.68182C167.152 10.4318 166.334 11.9773 164.538 11.9773ZM174.085 13.1818C176.017 13.1818 177.29 12 177.517 10.4545H176.176C175.926 11.4091 175.131 11.9773 174.085 11.9773C172.494 11.9773 171.472 10.6591 171.472 8.63636C171.472 6.65909 172.517 5.36364 174.085 5.36364C175.267 5.36364 175.972 6.09091 176.176 6.88636H177.517C177.29 5.25 175.903 4.15909 174.062 4.15909C171.699 4.15909 170.131 6.02273 170.131 8.68182C170.131 11.2955 171.631 13.1818 174.085 13.1818ZM183.136 13.1818C184.909 13.1818 186.205 12.2955 186.614 10.9773L185.318 10.6136C184.977 11.5227 184.188 11.9773 183.136 11.9773C181.562 11.9773 180.477 10.9602 180.415 9.09091H186.75V8.52273C186.75 5.27273 184.818 4.15909 183 4.15909C180.636 4.15909 179.068 6.02273 179.068 8.70455C179.068 11.3864 180.614 13.1818 183.136 13.1818ZM180.415 7.93182C180.506 6.57386 181.466 5.36364 183 5.36364C184.455 5.36364 185.386 6.45455 185.386 7.93182H180.415ZM181.75 3.22727L182.932 1.63636L184.114 3.22727H185.386V3.13636L183.545 0.772727H182.318L180.477 3.13636V3.22727H181.75ZM196.585 13.1818C198.267 13.1818 198.835 12.1364 199.131 11.6591H199.29V13H200.585V1.36364H199.244V5.65909H199.131C198.835 5.20455 198.312 4.15909 196.608 4.15909C194.403 4.15909 192.881 5.90909 192.881 8.65909C192.881 11.4318 194.403 13.1818 196.585 13.1818ZM196.767 11.9773C195.085 11.9773 194.222 10.5 194.222 8.63636C194.222 6.79545 195.062 5.36364 196.767 5.36364C198.403 5.36364 199.267 6.68182 199.267 8.63636C199.267 10.6136 198.381 11.9773 196.767 11.9773ZM206.886 13.1818C208.659 13.1818 209.955 12.2955 210.364 10.9773L209.068 10.6136C208.727 11.5227 207.938 11.9773 206.886 11.9773C205.312 11.9773 204.227 10.9602 204.165 9.09091H210.5V8.52273C210.5 5.27273 208.568 4.15909 206.75 4.15909C204.386 4.15909 202.818 6.02273 202.818 8.70455C202.818 11.3864 204.364 13.1818 206.886 13.1818ZM204.165 7.93182C204.256 6.57386 205.216 5.36364 206.75 5.36364C208.205 5.36364 209.136 6.45455 209.136 7.93182H204.165ZM218.722 6.22727C218.301 4.98864 217.358 4.15909 215.631 4.15909C213.79 4.15909 212.426 5.20455 212.426 6.68182C212.426 7.88636 213.142 8.69318 214.744 9.06818L216.199 9.40909C217.08 9.61364 217.494 10.0341 217.494 10.6364C217.494 11.3864 216.699 12 215.449 12C214.352 12 213.665 11.5284 213.426 10.5909L212.153 10.9091C212.466 12.392 213.688 13.1818 215.472 13.1818C217.5 13.1818 218.881 12.0739 218.881 10.5682C218.881 9.35227 218.119 8.58523 216.562 8.20455L215.267 7.88636C214.233 7.63068 213.767 7.28409 213.767 6.61364C213.767 5.86364 214.562 5.31818 215.631 5.31818C216.801 5.31818 217.284 5.96591 217.517 6.56818L218.722 6.22727ZM224.558 13.1818C226.331 13.1818 227.626 12.2955 228.036 10.9773L226.74 10.6136C226.399 11.5227 225.609 11.9773 224.558 11.9773C222.984 11.9773 221.899 10.9602 221.837 9.09091H228.172V8.52273C228.172 5.27273 226.24 4.15909 224.422 4.15909C222.058 4.15909 220.49 6.02273 220.49 8.70455C220.49 11.3864 222.036 13.1818 224.558 13.1818ZM221.837 7.93182C221.928 6.57386 222.888 5.36364 224.422 5.36364C225.876 5.36364 226.808 6.45455 226.808 7.93182H221.837ZM230.212 4.27273V13.6364C230.212 14.5227 229.848 15.0227 229.03 15.0227H228.78V16.2727H229.053C230.734 16.2727 231.553 15.25 231.553 13.6364V4.27273H230.212ZM230.871 2.81818C231.393 2.81818 231.825 2.40909 231.825 1.90909C231.825 1.40909 231.393 1 230.871 1C230.348 1 229.916 1.40909 229.916 1.90909C229.916 2.40909 230.348 2.81818 230.871 2.81818ZM236.577 13.2045C238.099 13.2045 238.895 12.3864 239.168 11.8182H239.236V13H240.577V7.25C240.577 4.47727 238.463 4.15909 237.349 4.15909C236.031 4.15909 234.531 4.61364 233.849 6.20455L235.122 6.65909C235.418 6.02273 236.116 5.34091 237.395 5.34091C238.628 5.34091 239.236 5.99432 239.236 7.11364V7.15909C239.236 7.80682 238.577 7.75 236.986 7.95455C235.366 8.16477 233.599 8.52273 233.599 10.5227C233.599 12.2273 234.918 13.2045 236.577 13.2045ZM236.781 12C235.713 12 234.94 11.5227 234.94 10.5909C234.94 9.56818 235.872 9.25 236.918 9.11364C237.486 9.04545 239.009 8.88636 239.236 8.61364V9.84091C239.236 10.9318 238.372 12 236.781 12ZM251.07 13.1818C253.001 13.1818 254.274 12 254.501 10.4545H253.161C252.911 11.4091 252.115 11.9773 251.07 11.9773C249.479 11.9773 248.456 10.6591 248.456 8.63636C248.456 6.65909 249.501 5.36364 251.07 5.36364C252.251 5.36364 252.956 6.09091 253.161 6.88636H254.501C254.274 5.25 252.888 4.15909 251.047 4.15909C248.683 4.15909 247.115 6.02273 247.115 8.68182C247.115 11.2955 248.615 13.1818 251.07 13.1818ZM256.462 13H257.803V7.47727C257.803 6.29545 258.734 5.43182 260.007 5.43182C260.365 5.43182 260.734 5.5 260.825 5.52273V4.15909C260.672 4.14773 260.32 4.13636 260.121 4.13636C259.075 4.13636 258.166 4.72727 257.848 5.59091H257.757V4.27273H256.462V13ZM262.415 13H263.756V4.27273H262.415V13ZM263.097 2.81818C263.619 2.81818 264.051 2.40909 264.051 1.90909C264.051 1.40909 263.619 1 263.097 1C262.574 1 262.142 1.40909 262.142 1.90909C262.142 2.40909 262.574 2.81818 263.097 2.81818ZM266.212 16.2727H267.553V11.6591H267.666C267.962 12.1364 268.53 13.1818 270.212 13.1818C272.393 13.1818 273.916 11.4318 273.916 8.65909C273.916 5.90909 272.393 4.15909 270.189 4.15909C268.484 4.15909 267.962 5.20455 267.666 5.65909H267.507V4.27273H266.212V16.2727ZM267.53 8.63636C267.53 6.68182 268.393 5.36364 270.03 5.36364C271.734 5.36364 272.575 6.79545 272.575 8.63636C272.575 10.5 271.712 11.9773 270.03 11.9773C268.416 11.9773 267.53 10.6136 267.53 8.63636ZM279.757 4.27273H277.893V2.18182H276.553V4.27273H275.234V5.40909H276.553V10.8636C276.553 12.3864 277.78 13.1136 278.916 13.1136C279.416 13.1136 279.734 13.0227 279.916 12.9545L279.643 11.75C279.53 11.7727 279.348 11.8182 279.053 11.8182C278.462 11.8182 277.893 11.6364 277.893 10.5V5.40909H279.757V4.27273ZM285.226 13.1818C287.589 13.1818 289.18 11.3864 289.18 8.68182C289.18 5.95455 287.589 4.15909 285.226 4.15909C282.862 4.15909 281.271 5.95455 281.271 8.68182C281.271 11.3864 282.862 13.1818 285.226 13.1818ZM285.226 11.9773C283.43 11.9773 282.612 10.4318 282.612 8.68182C282.612 6.93182 283.43 5.36364 285.226 5.36364C287.021 5.36364 287.839 6.93182 287.839 8.68182C287.839 10.4318 287.021 11.9773 285.226 11.9773ZM294.75 16.4545C296.841 16.4545 298.523 15.5 298.523 13.25V4.27273H297.227V5.65909H297.091C296.795 5.20455 296.25 4.15909 294.545 4.15909C292.341 4.15909 290.818 5.90909 290.818 8.59091C290.818 11.3182 292.409 12.8636 294.523 12.8636C296.227 12.8636 296.773 11.8636 297.068 11.3864H297.182V13.1591C297.182 14.6136 296.159 15.2727 294.75 15.2727C293.165 15.2727 292.608 14.4375 292.25 13.9545L291.182 14.7045C291.727 15.6193 292.801 16.4545 294.75 16.4545ZM294.705 11.6591C293.023 11.6591 292.159 10.3864 292.159 8.56818C292.159 6.79545 293 5.36364 294.705 5.36364C296.341 5.36364 297.205 6.68182 297.205 8.56818C297.205 10.5 296.318 11.6591 294.705 11.6591ZM300.977 13H302.318V7.47727C302.318 6.29545 303.25 5.43182 304.523 5.43182C304.881 5.43182 305.25 5.5 305.341 5.52273V4.15909C305.188 4.14773 304.835 4.13636 304.636 4.13636C303.591 4.13636 302.682 4.72727 302.364 5.59091H302.273V4.27273H300.977V13ZM309.499 13.2045C311.021 13.2045 311.817 12.3864 312.089 11.8182H312.158V13H313.499V7.25C313.499 4.47727 311.385 4.15909 310.271 4.15909C308.953 4.15909 307.453 4.61364 306.771 6.20455L308.044 6.65909C308.339 6.02273 309.038 5.34091 310.317 5.34091C311.55 5.34091 312.158 5.99432 312.158 7.11364V7.15909C312.158 7.80682 311.499 7.75 309.908 7.95455C308.288 8.16477 306.521 8.52273 306.521 10.5227C306.521 12.2273 307.839 13.2045 309.499 13.2045ZM309.703 12C308.635 12 307.862 11.5227 307.862 10.5909C307.862 9.56818 308.794 9.25 309.839 9.11364C310.408 9.04545 311.93 8.88636 312.158 8.61364V9.84091C312.158 10.9318 311.294 12 309.703 12ZM319.832 4.27273H317.878V3.38636C317.878 2.52273 318.241 2.06818 319.128 2.06818C319.514 2.06818 319.741 2.15909 319.878 2.20455L320.264 1.04545C320.06 0.954545 319.651 0.818181 318.991 0.818181C317.741 0.818181 316.537 1.56818 316.537 3.06818V4.27273H315.128V5.40909H316.537V13H317.878V5.40909H319.832V4.27273ZM324.03 13.2045C325.553 13.2045 326.348 12.3864 326.621 11.8182H326.689V13H328.03V7.25C328.03 4.47727 325.916 4.15909 324.803 4.15909C323.484 4.15909 321.984 4.61364 321.303 6.20455L322.575 6.65909C322.871 6.02273 323.57 5.34091 324.848 5.34091C326.081 5.34091 326.689 5.99432 326.689 7.11364V7.15909C326.689 7.80682 326.03 7.75 324.439 7.95455C322.82 8.16477 321.053 8.52273 321.053 10.5227C321.053 12.2273 322.371 13.2045 324.03 13.2045ZM324.234 12C323.166 12 322.393 11.5227 322.393 10.5909C322.393 9.56818 323.325 9.25 324.371 9.11364C324.939 9.04545 326.462 8.88636 326.689 8.61364V9.84091C326.689 10.9318 325.825 12 324.234 12ZM330.477 13H331.818V7.47727C331.818 6.29545 332.75 5.43182 334.023 5.43182C334.381 5.43182 334.75 5.5 334.841 5.52273V4.15909C334.688 4.14773 334.335 4.13636 334.136 4.13636C333.091 4.13636 332.182 4.72727 331.864 5.59091H331.773V4.27273H330.477V13ZM344.476 13.1818C346.839 13.1818 348.43 11.3864 348.43 8.68182C348.43 5.95455 346.839 4.15909 344.476 4.15909C342.112 4.15909 340.521 5.95455 340.521 8.68182C340.521 11.3864 342.112 13.1818 344.476 13.1818ZM344.476 11.9773C342.68 11.9773 341.862 10.4318 341.862 8.68182C341.862 6.93182 342.68 5.36364 344.476 5.36364C346.271 5.36364 347.089 6.93182 347.089 8.68182C347.089 10.4318 346.271 11.9773 344.476 11.9773ZM355.977 9.43182C355.977 11.0682 354.727 11.8182 353.727 11.8182C352.614 11.8182 351.818 11 351.818 9.72727V4.27273H350.477V9.81818C350.477 12.0455 351.659 13.1136 353.295 13.1136C354.614 13.1136 355.477 12.4091 355.886 11.5227H355.977V13H357.318V4.27273H355.977V9.43182ZM367.57 13.1818C369.251 13.1818 369.82 12.1364 370.115 11.6591H370.274V13H371.57V1.36364H370.229V5.65909H370.115C369.82 5.20455 369.297 4.15909 367.592 4.15909C365.388 4.15909 363.865 5.90909 363.865 8.65909C363.865 11.4318 365.388 13.1818 367.57 13.1818ZM367.751 11.9773C366.07 11.9773 365.206 10.5 365.206 8.63636C365.206 6.79545 366.047 5.36364 367.751 5.36364C369.388 5.36364 370.251 6.68182 370.251 8.63636C370.251 10.6136 369.365 11.9773 367.751 11.9773ZM377.871 13.1818C379.643 13.1818 380.939 12.2955 381.348 10.9773L380.053 10.6136C379.712 11.5227 378.922 11.9773 377.871 11.9773C376.297 11.9773 375.212 10.9602 375.149 9.09091H381.484V8.52273C381.484 5.27273 379.553 4.15909 377.734 4.15909C375.371 4.15909 373.803 6.02273 373.803 8.70455C373.803 11.3864 375.348 13.1818 377.871 13.1818ZM375.149 7.93182C375.24 6.57386 376.2 5.36364 377.734 5.36364C379.189 5.36364 380.121 6.45455 380.121 7.93182H375.149ZM389.706 6.22727C389.286 4.98864 388.342 4.15909 386.615 4.15909C384.774 4.15909 383.411 5.20455 383.411 6.68182C383.411 7.88636 384.126 8.69318 385.729 9.06818L387.183 9.40909C388.064 9.61364 388.479 10.0341 388.479 10.6364C388.479 11.3864 387.683 12 386.433 12C385.337 12 384.649 11.5284 384.411 10.5909L383.138 10.9091C383.45 12.392 384.672 13.1818 386.456 13.1818C388.484 13.1818 389.865 12.0739 389.865 10.5682C389.865 9.35227 389.104 8.58523 387.547 8.20455L386.251 7.88636C385.217 7.63068 384.751 7.28409 384.751 6.61364C384.751 5.86364 385.547 5.31818 386.615 5.31818C387.786 5.31818 388.268 5.96591 388.501 6.56818L389.706 6.22727ZM395.429 13.1818C397.361 13.1818 398.634 12 398.861 10.4545H397.52C397.27 11.4091 396.474 11.9773 395.429 11.9773C393.838 11.9773 392.815 10.6591 392.815 8.63636C392.815 6.65909 393.861 5.36364 395.429 5.36364C396.611 5.36364 397.315 6.09091 397.52 6.88636H398.861C398.634 5.25 397.247 4.15909 395.406 4.15909C393.043 4.15909 391.474 6.02273 391.474 8.68182C391.474 11.2955 392.974 13.1818 395.429 13.1818ZM400.821 13H402.162V7.47727C402.162 6.29545 403.094 5.43182 404.366 5.43182C404.724 5.43182 405.094 5.5 405.185 5.52273V4.15909C405.031 4.14773 404.679 4.13636 404.48 4.13636C403.435 4.13636 402.526 4.72727 402.207 5.59091H402.116V4.27273H400.821V13ZM406.774 13H408.115V4.27273H406.774V13ZM407.456 2.81818C407.979 2.81818 408.411 2.40909 408.411 1.90909C408.411 1.40909 407.979 1 407.456 1C406.933 1 406.501 1.40909 406.501 1.90909C406.501 2.40909 406.933 2.81818 407.456 2.81818ZM410.571 16.2727H411.912V11.6591H412.026C412.321 12.1364 412.889 13.1818 414.571 13.1818C416.753 13.1818 418.276 11.4318 418.276 8.65909C418.276 5.90909 416.753 4.15909 414.548 4.15909C412.844 4.15909 412.321 5.20455 412.026 5.65909H411.866V4.27273H410.571V16.2727ZM411.889 8.63636C411.889 6.68182 412.753 5.36364 414.389 5.36364C416.094 5.36364 416.935 6.79545 416.935 8.63636C416.935 10.5 416.071 11.9773 414.389 11.9773C412.776 11.9773 411.889 10.6136 411.889 8.63636ZM424.116 4.27273H422.253V2.18182H420.912V4.27273H419.594V5.40909H420.912V10.8636C420.912 12.3864 422.139 13.1136 423.276 13.1136C423.776 13.1136 424.094 13.0227 424.276 12.9545L424.003 11.75C423.889 11.7727 423.707 11.8182 423.412 11.8182C422.821 11.8182 422.253 11.6364 422.253 10.5V5.40909H424.116V4.27273ZM429.585 13.1818C431.949 13.1818 433.54 11.3864 433.54 8.68182C433.54 5.95455 431.949 4.15909 429.585 4.15909C427.222 4.15909 425.631 5.95455 425.631 8.68182C425.631 11.3864 427.222 13.1818 429.585 13.1818ZM429.585 11.9773C427.79 11.9773 426.972 10.4318 426.972 8.68182C426.972 6.93182 427.79 5.36364 429.585 5.36364C431.381 5.36364 432.199 6.93182 432.199 8.68182C432.199 10.4318 431.381 11.9773 429.585 11.9773ZM439.109 16.4545C441.2 16.4545 442.882 15.5 442.882 13.25V4.27273H441.587V5.65909H441.45C441.155 5.20455 440.609 4.15909 438.905 4.15909C436.7 4.15909 435.178 5.90909 435.178 8.59091C435.178 11.3182 436.768 12.8636 438.882 12.8636C440.587 12.8636 441.132 11.8636 441.428 11.3864H441.541V13.1591C441.541 14.6136 440.518 15.2727 439.109 15.2727C437.524 15.2727 436.967 14.4375 436.609 13.9545L435.541 14.7045C436.087 15.6193 437.161 16.4545 439.109 16.4545ZM439.064 11.6591C437.382 11.6591 436.518 10.3864 436.518 8.56818C436.518 6.79545 437.359 5.36364 439.064 5.36364C440.7 5.36364 441.564 6.68182 441.564 8.56818C441.564 10.5 440.678 11.6591 439.064 11.6591ZM445.337 13H446.678V7.47727C446.678 6.29545 447.609 5.43182 448.882 5.43182C449.24 5.43182 449.609 5.5 449.7 5.52273V4.15909C449.547 4.14773 449.195 4.13636 448.996 4.13636C447.95 4.13636 447.041 4.72727 446.723 5.59091H446.632V4.27273H445.337V13ZM453.858 13.2045C455.381 13.2045 456.176 12.3864 456.449 11.8182H456.517V13H457.858V7.25C457.858 4.47727 455.744 4.15909 454.631 4.15909C453.312 4.15909 451.812 4.61364 451.131 6.20455L452.403 6.65909C452.699 6.02273 453.398 5.34091 454.676 5.34091C455.909 5.34091 456.517 5.99432 456.517 7.11364V7.15909C456.517 7.80682 455.858 7.75 454.267 7.95455C452.648 8.16477 450.881 8.52273 450.881 10.5227C450.881 12.2273 452.199 13.2045 453.858 13.2045ZM454.062 12C452.994 12 452.222 11.5227 452.222 10.5909C452.222 9.56818 453.153 9.25 454.199 9.11364C454.767 9.04545 456.29 8.88636 456.517 8.61364V9.84091C456.517 10.9318 455.653 12 454.062 12ZM464.192 4.27273H462.237V3.38636C462.237 2.52273 462.601 2.06818 463.487 2.06818C463.874 2.06818 464.101 2.15909 464.237 2.20455L464.624 1.04545C464.419 0.954545 464.01 0.818181 463.351 0.818181C462.101 0.818181 460.896 1.56818 460.896 3.06818V4.27273H459.487V5.40909H460.896V13H462.237V5.40909H464.192V4.27273ZM468.389 13.2045C469.912 13.2045 470.707 12.3864 470.98 11.8182H471.048V13H472.389V7.25C472.389 4.47727 470.276 4.15909 469.162 4.15909C467.844 4.15909 466.344 4.61364 465.662 6.20455L466.935 6.65909C467.23 6.02273 467.929 5.34091 469.207 5.34091C470.44 5.34091 471.048 5.99432 471.048 7.11364V7.15909C471.048 7.80682 470.389 7.75 468.798 7.95455C467.179 8.16477 465.412 8.52273 465.412 10.5227C465.412 12.2273 466.73 13.2045 468.389 13.2045ZM468.594 12C467.526 12 466.753 11.5227 466.753 10.5909C466.753 9.56818 467.685 9.25 468.73 9.11364C469.298 9.04545 470.821 8.88636 471.048 8.61364V9.84091C471.048 10.9318 470.185 12 468.594 12ZM474.837 13H476.178V7.47727C476.178 6.29545 477.109 5.43182 478.382 5.43182C478.74 5.43182 479.109 5.5 479.2 5.52273V4.15909C479.047 4.14773 478.695 4.13636 478.496 4.13636C477.45 4.13636 476.541 4.72727 476.223 5.59091H476.132V4.27273H474.837V13ZM480.767 13.0909C481.33 13.0909 481.79 12.6307 481.79 12.0682C481.79 11.5057 481.33 11.0455 480.767 11.0455C480.205 11.0455 479.744 11.5057 479.744 12.0682C479.744 12.6307 480.205 13.0909 480.767 13.0909Z" fill="#495057"/>
</svg>
