<svg width="386" height="24" viewBox="0 0 386 24" fill="none" xmlns="http://www.w3.org/2000/svg">
<path d="M14.8079 0.545454H11.1346V11.5227H10.9812L3.44709 0.545454H0.208452V18H3.89879V7.0142H4.02663L11.6204 18H14.8079V0.545454ZM23.7546 18.2557C26.9933 18.2557 29.1751 16.679 29.6864 14.25L26.3285 14.0284C25.962 15.0256 25.0245 15.5455 23.8143 15.5455C21.9989 15.5455 20.8484 14.3438 20.8484 12.392V12.3835H29.7631V11.3864C29.7631 6.9375 27.07 4.73864 23.6097 4.73864C19.7575 4.73864 17.2603 7.47443 17.2603 11.5142C17.2603 15.6648 19.7234 18.2557 23.7546 18.2557ZM20.8484 10.1335C20.9251 8.64205 22.0586 7.44886 23.6694 7.44886C25.2461 7.44886 26.337 8.57386 26.3455 10.1335H20.8484ZM35.7631 10.4318C35.7717 8.74432 36.7773 7.75568 38.2433 7.75568C39.7006 7.75568 40.5785 8.71023 40.57 10.3125V18H44.2006V9.66477C44.2006 6.61364 42.4109 4.73864 39.6836 4.73864C37.7404 4.73864 36.3342 5.69318 35.7461 7.21875H35.5927V4.90909H32.1325V18H35.7631V10.4318ZM50.6928 10.4318C50.7013 8.74432 51.7326 7.75568 53.2156 7.75568C54.69 7.75568 55.5593 8.7017 55.5508 10.3125V18H59.1815V9.66477C59.19 6.59659 57.3832 4.73864 54.6559 4.73864C52.6701 4.73864 51.3406 5.67614 50.744 7.21875H50.5906V0.545454H47.0621V18H50.6928V10.4318ZM70.4336 12.4261C70.4421 14.1818 69.2404 15.1023 67.9364 15.1023C66.5643 15.1023 65.6779 14.1392 65.6694 12.5966V4.90909H62.0387V13.2443C62.0472 16.304 63.837 18.1705 66.4705 18.1705C68.4393 18.1705 69.854 17.1562 70.4421 15.6222H70.5785V18H74.0643V4.90909H70.4336V12.4261ZM76.9684 18H80.5991V10.142C80.5991 8.69318 81.5195 7.73011 82.7298 7.73011C83.9229 7.73011 84.7241 8.5483 84.7241 9.83523V18H88.244V10.0057C88.244 8.65057 89.0195 7.73011 90.3406 7.73011C91.4996 7.73011 92.369 8.45455 92.369 9.91193V18H95.9911V9.19602C95.9911 6.35795 94.3036 4.73864 91.8661 4.73864C89.9485 4.73864 88.457 5.71875 87.9201 7.21875H87.7837C87.3661 5.7017 86.0281 4.73864 84.2298 4.73864C82.4656 4.73864 81.1275 5.67614 80.582 7.21875H80.4286V4.90909H76.9684V18ZM102.592 18.2472C104.527 18.2472 105.779 17.4034 106.419 16.1847H106.521V18H109.964V9.17045C109.964 6.05114 107.322 4.73864 104.407 4.73864C101.271 4.73864 99.2085 6.23864 98.7056 8.625L102.064 8.89773C102.311 8.02841 103.086 7.3892 104.39 7.3892C105.626 7.3892 106.333 8.01136 106.333 9.08523V9.13636C106.333 9.98011 105.439 10.0909 103.163 10.3125C100.572 10.5511 98.2454 11.4205 98.2454 14.3438C98.2454 16.9347 100.095 18.2472 102.592 18.2472ZM103.632 15.7415C102.515 15.7415 101.714 15.2216 101.714 14.2244C101.714 13.2017 102.558 12.6989 103.836 12.5199C104.629 12.4091 105.924 12.2216 106.359 11.9318V13.321C106.359 14.6932 105.225 15.7415 103.632 15.7415ZM118.336 18H121.966V10.142C121.966 8.69318 122.887 7.73011 124.097 7.73011C125.29 7.73011 126.091 8.5483 126.091 9.83523V18H129.611V10.0057C129.611 8.65057 130.387 7.73011 131.708 7.73011C132.867 7.73011 133.736 8.45455 133.736 9.91193V18H137.358V9.19602C137.358 6.35795 135.671 4.73864 133.233 4.73864C131.316 4.73864 129.824 5.71875 129.287 7.21875H129.151C128.733 5.7017 127.395 4.73864 125.597 4.73864C123.833 4.73864 122.495 5.67614 121.949 7.21875H121.796V4.90909H118.336V18ZM146.192 18.2557C149.431 18.2557 151.613 16.679 152.124 14.25L148.766 14.0284C148.4 15.0256 147.462 15.5455 146.252 15.5455C144.436 15.5455 143.286 14.3438 143.286 12.392V12.3835H152.201V11.3864C152.201 6.9375 149.507 4.73864 146.047 4.73864C142.195 4.73864 139.698 7.47443 139.698 11.5142C139.698 15.6648 142.161 18.2557 146.192 18.2557ZM143.286 10.1335C143.363 8.64205 144.496 7.44886 146.107 7.44886C147.684 7.44886 148.775 8.57386 148.783 10.1335H143.286ZM158.201 10.4318C158.209 8.74432 159.215 7.75568 160.681 7.75568C162.138 7.75568 163.016 8.71023 163.007 10.3125V18H166.638V9.66477C166.638 6.61364 164.848 4.73864 162.121 4.73864C160.178 4.73864 158.772 5.69318 158.184 7.21875H158.03V4.90909H154.57V18H158.201V10.4318ZM180.392 8.64205C180.068 6.23011 178.125 4.73864 174.818 4.73864C171.468 4.73864 169.261 6.28977 169.27 8.8125C169.261 10.7727 170.497 12.0426 173.054 12.554L175.321 13.0057C176.463 13.2358 176.983 13.6534 177 14.3097C176.983 15.0852 176.139 15.6392 174.869 15.6392C173.574 15.6392 172.713 15.0852 172.491 14.0199L168.92 14.2074C169.261 16.7131 171.392 18.2557 174.86 18.2557C178.252 18.2557 180.681 16.5256 180.69 13.9432C180.681 12.0511 179.446 10.9176 176.906 10.3977L174.537 9.92045C173.318 9.65625 172.866 9.23864 172.875 8.60795C172.866 7.82386 173.752 7.3125 174.877 7.3125C176.139 7.3125 176.889 8.00284 177.068 8.84659L180.392 8.64205ZM186.709 18.2472C188.644 18.2472 189.897 17.4034 190.536 16.1847H190.638V18H194.081V9.17045C194.081 6.05114 191.439 4.73864 188.525 4.73864C185.388 4.73864 183.326 6.23864 182.823 8.625L186.181 8.89773C186.428 8.02841 187.203 7.3892 188.507 7.3892C189.743 7.3892 190.451 8.01136 190.451 9.08523V9.13636C190.451 9.98011 189.556 10.0909 187.28 10.3125C184.689 10.5511 182.363 11.4205 182.363 14.3438C182.363 16.9347 184.212 18.2472 186.709 18.2472ZM187.749 15.7415C186.632 15.7415 185.831 15.2216 185.831 14.2244C185.831 13.2017 186.675 12.6989 187.953 12.5199C188.746 12.4091 190.042 12.2216 190.476 11.9318V13.321C190.476 14.6932 189.343 15.7415 187.749 15.7415ZM202.796 23.1818C206.537 23.1818 209.196 21.4773 209.196 18.1278V4.90909H205.591V7.10795H205.455C204.969 6.04261 203.904 4.73864 201.713 4.73864C198.841 4.73864 196.412 6.97159 196.412 11.429C196.412 15.7841 198.773 17.8125 201.722 17.8125C203.81 17.8125 204.978 16.7642 205.455 15.6818H205.608V18.0767C205.608 19.875 204.458 20.5739 202.881 20.5739C201.279 20.5739 200.469 19.875 200.171 19.0824L196.813 19.5341C197.248 21.5966 199.267 23.1818 202.796 23.1818ZM202.873 15.0852C201.091 15.0852 200.12 13.6705 200.12 11.4119C200.12 9.1875 201.074 7.62784 202.873 7.62784C204.637 7.62784 205.625 9.11932 205.625 11.4119C205.625 13.7216 204.62 15.0852 202.873 15.0852ZM218.051 18.2557C221.29 18.2557 223.472 16.679 223.983 14.25L220.625 14.0284C220.259 15.0256 219.321 15.5455 218.111 15.5455C216.296 15.5455 215.145 14.3438 215.145 12.392V12.3835H224.06V11.3864C224.06 6.9375 221.367 4.73864 217.907 4.73864C214.054 4.73864 211.557 7.47443 211.557 11.5142C211.557 15.6648 214.02 18.2557 218.051 18.2557ZM215.145 10.1335C215.222 8.64205 216.355 7.44886 217.966 7.44886C219.543 7.44886 220.634 8.57386 220.642 10.1335H215.145ZM226.429 18H230.06V10.142C230.06 8.69318 230.98 7.73011 232.191 7.73011C233.384 7.73011 234.185 8.5483 234.185 9.83523V18H237.705V10.0057C237.705 8.65057 238.48 7.73011 239.801 7.73011C240.961 7.73011 241.83 8.45455 241.83 9.91193V18H245.452V9.19602C245.452 6.35795 243.765 4.73864 241.327 4.73864C239.409 4.73864 237.918 5.71875 237.381 7.21875H237.245C236.827 5.7017 235.489 4.73864 233.691 4.73864C231.926 4.73864 230.588 5.67614 230.043 7.21875H229.89V4.90909H226.429V18ZM259.841 18.2557C263.079 18.2557 265.261 16.679 265.772 14.25L262.414 14.0284C262.048 15.0256 261.11 15.5455 259.9 15.5455C258.085 15.5455 256.934 14.3438 256.934 12.392V12.3835H265.849V11.3864C265.849 6.9375 263.156 4.73864 259.696 4.73864C255.843 4.73864 253.346 7.47443 253.346 11.5142C253.346 15.6648 255.809 18.2557 259.841 18.2557ZM256.934 10.1335C257.011 8.64205 258.145 7.44886 259.755 7.44886C261.332 7.44886 262.423 8.57386 262.431 10.1335H256.934ZM271.849 10.4318C271.858 8.74432 272.863 7.75568 274.329 7.75568C275.787 7.75568 276.664 8.71023 276.656 10.3125V18H280.287V9.66477C280.287 6.61364 278.497 4.73864 275.77 4.73864C273.826 4.73864 272.42 5.69318 271.832 7.21875H271.679V4.90909H268.218V18H271.849V10.4318ZM289.063 18.2557C292.549 18.2557 294.739 16.2102 294.909 13.2017H291.483C291.27 14.5994 290.35 15.3835 289.105 15.3835C287.409 15.3835 286.31 13.9602 286.31 11.4545C286.31 8.98295 287.418 7.56818 289.105 7.56818C290.435 7.56818 291.287 8.44602 291.483 9.75H294.909C294.756 6.72443 292.463 4.73864 289.046 4.73864C285.074 4.73864 282.62 7.49148 282.62 11.5057C282.62 15.4858 285.032 18.2557 289.063 18.2557ZM303.149 18.2557C307.12 18.2557 309.592 15.5369 309.592 11.5057C309.592 7.44886 307.12 4.73864 303.149 4.73864C299.177 4.73864 296.706 7.44886 296.706 11.5057C296.706 15.5369 299.177 18.2557 303.149 18.2557ZM303.166 15.4432C301.333 15.4432 300.396 13.7642 300.396 11.4801C300.396 9.19602 301.333 7.50852 303.166 7.50852C304.964 7.50852 305.902 9.19602 305.902 11.4801C305.902 13.7642 304.964 15.4432 303.166 15.4432ZM315.583 10.4318C315.592 8.74432 316.598 7.75568 318.064 7.75568C319.521 7.75568 320.399 8.71023 320.39 10.3125V18H324.021V9.66477C324.021 6.61364 322.231 4.73864 319.504 4.73864C317.561 4.73864 316.154 5.69318 315.566 7.21875H315.413V4.90909H311.953V18H315.583V10.4318ZM333.846 4.90909H331.382V1.77273H327.752V4.90909H325.962V7.63636H327.752V14.4545C327.735 17.0199 329.482 18.2898 332.115 18.179C333.053 18.1449 333.718 17.9574 334.084 17.8381L333.513 15.1364C333.334 15.1705 332.951 15.2557 332.61 15.2557C331.885 15.2557 331.382 14.983 331.382 13.9773V7.63636H333.846V4.90909ZM336.211 18H339.841V10.5938C339.841 8.98295 341.017 7.875 342.62 7.875C343.123 7.875 343.813 7.96023 344.154 8.07102V4.84943C343.83 4.77273 343.378 4.72159 343.012 4.72159C341.546 4.72159 340.344 5.57386 339.867 7.19318H339.73V4.90909H336.211V18ZM349.389 18.2472C351.324 18.2472 352.576 17.4034 353.216 16.1847H353.318V18H356.761V9.17045C356.761 6.05114 354.119 4.73864 351.204 4.73864C348.068 4.73864 346.005 6.23864 345.502 8.625L348.86 8.89773C349.108 8.02841 349.883 7.3892 351.187 7.3892C352.423 7.3892 353.13 8.01136 353.13 9.08523V9.13636C353.13 9.98011 352.235 10.0909 349.96 10.3125C347.369 10.5511 345.042 11.4205 345.042 14.3438C345.042 16.9347 346.892 18.2472 349.389 18.2472ZM350.429 15.7415C349.312 15.7415 348.511 15.2216 348.511 14.2244C348.511 13.2017 349.355 12.6989 350.633 12.5199C351.426 12.4091 352.721 12.2216 353.156 11.9318V13.321C353.156 14.6932 352.022 15.7415 350.429 15.7415ZM364.402 18.2131C366.515 18.2131 367.615 16.9943 368.118 15.9034H368.271V18H371.85V0.545454H368.228V7.10795H368.118C367.632 6.04261 366.583 4.73864 364.393 4.73864C361.521 4.73864 359.092 6.97159 359.092 11.4716C359.092 15.8523 361.419 18.2131 364.402 18.2131ZM365.552 15.3239C363.771 15.3239 362.799 13.7386 362.799 11.4545C362.799 9.1875 363.754 7.62784 365.552 7.62784C367.316 7.62784 368.305 9.11932 368.305 11.4545C368.305 13.7898 367.299 15.3239 365.552 15.3239ZM378.569 18.2472C380.503 18.2472 381.756 17.4034 382.395 16.1847H382.498V18H385.941V9.17045C385.941 6.05114 383.299 4.73864 380.384 4.73864C377.248 4.73864 375.185 6.23864 374.682 8.625L378.04 8.89773C378.287 8.02841 379.063 7.3892 380.367 7.3892C381.603 7.3892 382.31 8.01136 382.31 9.08523V9.13636C382.31 9.98011 381.415 10.0909 379.14 10.3125C376.549 10.5511 374.222 11.4205 374.222 14.3438C374.222 16.9347 376.071 18.2472 378.569 18.2472ZM379.608 15.7415C378.492 15.7415 377.691 15.2216 377.691 14.2244C377.691 13.2017 378.534 12.6989 379.813 12.5199C380.605 12.4091 381.901 12.2216 382.336 11.9318V13.321C382.336 14.6932 381.202 15.7415 379.608 15.7415Z" fill="#343A40"/>
</svg>
